<svg width="829" height="924" viewBox="0 0 829 924" fill="none" xmlns="http://www.w3.org/2000/svg">
<path d="M411.056 3.01219V3.1442L413.942 3.25403C470.766 5.41659 524.581 21.3208 572.974 48.1943L573.036 48.2286L573.099 48.2599C617.922 70.4616 659.239 100.456 695.078 137.405C778.565 223.478 825.483 340.236 825.483 462C825.483 583.763 778.565 700.522 695.078 786.594C659.24 823.543 617.924 853.537 573.102 875.738L573.039 875.77L572.978 875.804C524.583 902.679 470.767 918.583 413.942 920.746L411.056 920.856V920.988C409.802 920.977 408.548 920.961 407.295 920.938L407.24 920.937L407.184 920.938C404.987 920.979 402.785 921 400.579 921C397.399 921 394.227 920.957 391.065 920.871L390.988 920.869L390.911 920.871C388.397 920.932 385.881 920.972 383.363 920.989V920.59L380.534 920.428C170.538 908.412 15.3196 708.261 15.3196 462C15.3196 215.739 170.538 15.5882 380.534 3.57225L383.363 3.4104V3.01041C385.882 3.0279 388.399 3.0674 390.914 3.12881L390.991 3.1307L391.068 3.12861C394.23 3.0431 397.4 3.0001 400.579 3.0001C402.783 3.0001 404.984 3.02078 407.18 3.06197L407.235 3.06301L407.291 3.06199C408.545 3.039 409.801 3.02239 411.056 3.01219ZM553.521 845.698L553.589 845.665L553.656 845.629C676.008 779.015 778.099 634.78 778.099 462C778.099 289.218 676.007 144.983 553.653 78.3696L553.586 78.3335L553.518 78.3008C505.204 55.0684 464.928 39.1015 397.946 39.1015C364.182 39.1015 318.715 51.0676 273.444 72.2362C228.135 93.4224 182.717 123.967 149.134 161.404C78.119 240.572 37.6945 348.647 37.6944 462C37.6945 575.352 78.1189 683.428 149.134 762.595C216.137 837.29 304.994 880.377 397.8 884.895L397.94 884.902L398.08 884.895C452.264 882.478 505.044 869.009 553.521 845.698Z" fill="white" stroke="black" stroke-width="6"/>
<path d="M119.92 127.214L121.903 127.262L123.141 125.713L147.83 94.8376C156.452 84.0553 172.005 82.4316 182.596 91.1686L201.2 106.516C211.829 115.284 213.464 131.184 204.813 142.003L164.972 191.827L164.096 192.922V194.325V211.818V212.77L164.525 213.621L173.391 231.181C176.23 236.804 177.712 243.036 177.712 249.362V697.254C177.712 707.221 174.035 716.817 167.423 724.152L165.237 726.576L165.235 726.578C165.203 726.614 165.169 726.651 165.134 726.69L164.096 727.834V729.379V735.684V737.086L164.972 738.182L204.813 788.007C213.464 798.826 211.829 814.726 201.201 823.494L182.597 838.841C172.006 847.578 156.453 845.954 147.831 835.172L128.899 811.496L127.47 809.71L125.206 810.035C123.121 810.334 120.988 810.489 118.818 810.489H69.1231C44.1754 810.489 23.8454 789.93 23.8454 764.438V736.552V734.386L22.0311 733.202C11.1934 726.131 4 713.769 4 699.678V230.445C4 216.354 11.1934 203.992 22.0311 196.921L23.8454 195.737V193.571V173.252C23.8454 147.759 44.1755 127.2 69.1232 127.2H118.818C119.186 127.2 119.554 127.205 119.92 127.214Z" fill="white" stroke="black" stroke-width="8"/>
<rect x="54.1499" y="379" width="64.9798" height="171" rx="20" fill="white" stroke="black" stroke-width="8"/>
</svg>
