<svg width="828" height="1128" viewBox="0 0 828 1128" fill="none" xmlns="http://www.w3.org/2000/svg">
<path d="M231.577 55.369C226.968 78.563 219.912 250.866 231.577 278.041C281.847 304.366 315.559 313.02 392.924 313.02C470.289 313.02 565.623 278.041 565.623 278.041C582.902 228.049 569.574 84.8571 565.623 55.369L565.587 55.1001C561.656 25.754 558.876 5 392.924 5C226.466 5 236.187 32.175 231.577 55.369Z" fill="white" stroke="black" stroke-width="9" stroke-miterlimit="10"/>
<path d="M231.577 1072.63C226.967 1049.44 219.911 877.134 231.577 849.959C281.847 823.634 315.559 814.979 392.924 814.979C470.289 814.979 565.623 849.959 565.623 849.959C582.902 899.951 569.574 1043.14 565.623 1072.63L565.587 1072.9C561.656 1102.25 558.876 1123 392.924 1123C226.466 1123 236.187 1095.82 231.577 1072.63Z" fill="white" stroke="black" stroke-width="9" stroke-miterlimit="10"/>
<path d="M718 521.323C718 512.198 710.629 504.801 701.536 504.801C692.443 504.801 685.072 512.198 685.072 521.323V609.441C685.072 618.566 692.443 625.963 701.536 625.963C710.629 625.963 718 618.566 718 609.441V521.323Z" fill="white" stroke="black" stroke-width="5"/>
<path d="M567.003 210.158L224.694 210.158C154.723 210.158 98 267.081 98 337.3L98 796.805C98 867.024 154.723 923.947 224.694 923.947H567.003C636.974 923.947 693.696 867.024 693.696 796.805V337.3C693.696 267.081 636.974 210.158 567.003 210.158Z" fill="white" stroke="black" stroke-width="5" stroke-miterlimit="10"/>
<path d="M531.582 276.089H260.115C203.645 276.089 157.866 322.03 157.866 378.7V755.421C157.866 812.09 203.645 858.032 260.115 858.032H531.582C588.053 858.032 633.83 812.09 633.83 755.421V378.7C633.83 322.03 588.053 276.089 531.582 276.089Z" fill="black" stroke="black" stroke-width="3" stroke-miterlimit="10"/>
<path d="M296.939 679.655V751.251H280.427V698.341L264.159 703.11V690.522L295.42 679.655H296.939ZM377.987 714.027V716.929C377.987 722.403 377.219 727.321 375.684 731.679C374.182 736.006 372.041 739.712 369.264 742.793C366.488 745.841 363.206 748.186 359.416 749.825C355.626 751.432 351.446 752.234 346.872 752.234C342.267 752.234 338.052 751.432 334.231 749.825C330.441 748.186 327.142 745.841 324.332 742.793C321.555 739.712 319.399 736.006 317.864 731.679C316.362 727.321 315.611 722.403 315.611 716.929V714.027C315.611 708.553 316.362 703.636 317.864 699.275C319.399 694.915 321.539 691.211 324.283 688.161C327.06 685.08 330.342 682.736 334.132 681.131C337.955 679.491 342.168 678.671 346.775 678.671C351.347 678.671 355.529 679.491 359.319 681.131C363.14 682.736 366.439 685.08 369.216 688.161C371.993 691.211 374.149 694.915 375.684 699.275C377.219 703.636 377.987 708.553 377.987 714.027ZM360.543 716.929V713.928C360.543 710.388 360.233 707.274 359.612 704.586C359.024 701.865 358.143 699.587 356.967 697.751C355.791 695.914 354.336 694.537 352.605 693.62C350.906 692.67 348.962 692.194 346.775 692.194C344.487 692.194 342.494 692.67 340.796 693.62C339.098 694.537 337.676 695.914 336.533 697.751C335.39 699.587 334.524 701.865 333.936 704.586C333.381 707.274 333.103 710.388 333.103 713.928V716.929C333.103 720.436 333.381 723.55 333.936 726.271C334.524 728.959 335.39 731.237 336.533 733.106C337.709 734.974 339.146 736.384 340.845 737.335C342.576 738.285 344.586 738.76 346.872 738.76C349.061 738.76 351.004 738.285 352.703 737.335C354.401 736.384 355.822 734.974 356.967 733.106C358.143 731.237 359.024 728.959 359.612 726.271C360.233 723.55 360.543 720.436 360.543 716.929ZM385.241 743.481C385.241 741.12 386.091 739.154 387.789 737.58C389.487 735.975 391.676 735.171 394.356 735.171C397.067 735.171 399.255 735.975 400.921 737.58C402.619 739.154 403.469 741.12 403.469 743.481C403.469 745.841 402.619 747.825 400.921 749.432C399.255 751.005 397.067 751.792 394.356 751.792C391.676 751.792 389.487 751.005 387.789 749.432C386.091 747.825 385.241 745.841 385.241 743.481ZM385.241 704.241C385.241 701.881 386.091 699.914 387.789 698.341C389.487 696.734 391.676 695.932 394.356 695.932C397.067 695.932 399.255 696.734 400.921 698.341C402.619 699.914 403.469 701.881 403.469 704.241C403.469 706.602 402.619 708.584 400.921 710.191C399.255 711.765 397.067 712.551 394.356 712.551C391.676 712.551 389.487 711.765 387.789 710.191C386.091 708.584 385.241 706.602 385.241 704.241ZM448.6 679.655V751.251H432.086V698.341L415.818 703.11V690.522L447.081 679.655H448.6ZM529.647 714.027V716.929C529.647 722.403 528.88 727.321 527.345 731.679C525.841 736.006 523.702 739.712 520.926 742.793C518.149 745.841 514.865 748.186 511.077 749.825C507.287 751.432 503.105 752.234 498.533 752.234C493.926 752.234 489.713 751.432 485.89 749.825C482.1 748.186 478.801 745.841 475.993 742.793C473.216 739.712 471.06 736.006 469.525 731.679C468.021 727.321 467.27 722.403 467.27 716.929V714.027C467.27 708.553 468.021 703.636 469.525 699.275C471.06 694.915 473.199 691.211 475.943 688.161C478.72 685.08 482.003 682.736 485.793 681.131C489.614 679.491 493.829 678.671 498.434 678.671C503.008 678.671 507.188 679.491 510.978 681.131C514.801 682.736 518.1 685.08 520.877 688.161C523.652 691.211 525.808 694.915 527.345 699.275C528.88 703.636 529.647 708.553 529.647 714.027ZM512.203 716.929V713.928C512.203 710.388 511.892 707.274 511.273 704.586C510.685 701.865 509.802 699.587 508.626 697.751C507.45 695.914 505.997 694.537 504.266 693.62C502.566 692.67 500.623 692.194 498.434 692.194C496.148 692.194 494.155 692.67 492.457 693.62C490.757 694.537 489.337 695.914 488.194 697.751C487.051 699.587 486.185 701.865 485.597 704.586C485.04 707.274 484.763 710.388 484.763 713.928V716.929C484.763 720.436 485.04 723.55 485.597 726.271C486.185 728.959 487.051 731.237 488.194 733.106C489.37 734.974 490.806 736.384 492.506 737.335C494.237 738.285 496.245 738.76 498.533 738.76C500.72 738.76 502.665 738.285 504.363 737.335C506.063 736.384 507.483 734.974 508.626 733.106C509.802 731.237 510.685 728.959 511.273 726.271C511.892 723.55 512.203 720.436 512.203 716.929Z" fill="white"/>
<path d="M301.306 801.156V804.751H290.082V801.156H301.306ZM291.567 782.377V804.751H286.975V782.377H291.567ZM311.529 800.772V788.125H315.939V804.751H311.79L311.529 800.772ZM312.019 797.36L313.32 797.329C313.32 798.435 313.193 799.466 312.937 800.418C312.682 801.36 312.299 802.18 311.79 802.877C311.279 803.563 310.636 804.102 309.859 804.49C309.083 804.869 308.171 805.058 307.119 805.058C306.313 805.058 305.568 804.947 304.883 804.72C304.21 804.485 303.628 804.122 303.137 803.629C302.658 803.128 302.28 802.487 302.004 801.708C301.739 800.92 301.607 799.973 301.607 798.866V788.125H306.016V798.896C306.016 799.389 306.073 799.803 306.184 800.141C306.308 800.479 306.476 800.756 306.691 800.972C306.904 801.186 307.155 801.34 307.44 801.433C307.736 801.524 308.063 801.571 308.42 801.571C309.33 801.571 310.043 801.386 310.563 801.017C311.095 800.649 311.468 800.147 311.681 799.512C311.907 798.866 312.019 798.149 312.019 797.36ZM322.058 791.674V804.751H317.648V788.125H321.782L322.058 791.674ZM321.414 795.855H320.221C320.221 794.624 320.379 793.518 320.694 792.535C321.011 791.542 321.455 790.697 322.027 790C322.599 789.293 323.278 788.755 324.064 788.387C324.86 788.007 325.748 787.817 326.728 787.817C327.504 787.817 328.213 787.93 328.856 788.155C329.5 788.38 330.051 788.739 330.51 789.232C330.98 789.723 331.336 790.374 331.582 791.183C331.838 791.992 331.965 792.981 331.965 794.149V804.751H327.524V794.133C327.524 793.395 327.423 792.822 327.219 792.412C327.013 792.003 326.712 791.715 326.314 791.551C325.927 791.378 325.447 791.29 324.875 791.29C324.283 791.29 323.768 791.408 323.329 791.644C322.9 791.88 322.543 792.207 322.256 792.627C321.982 793.036 321.772 793.518 321.629 794.072C321.486 794.624 321.414 795.219 321.414 795.855ZM333.964 802.616C333.964 801.96 334.19 801.412 334.638 800.972C335.098 800.531 335.705 800.311 336.46 800.311C337.216 800.311 337.818 800.531 338.267 800.972C338.726 801.412 338.957 801.96 338.957 802.616C338.957 803.271 338.726 803.82 338.267 804.259C337.818 804.7 337.216 804.92 336.46 804.92C335.705 804.92 335.098 804.7 334.638 804.259C334.19 803.82 333.964 803.271 333.964 802.616ZM362.586 801.294V804.751H347.336V801.801L354.547 794.04C355.272 793.232 355.844 792.52 356.263 791.905C356.681 791.28 356.982 790.722 357.166 790.229C357.36 789.727 357.457 789.252 357.457 788.8C357.457 788.125 357.345 787.546 357.12 787.065C356.896 786.572 356.564 786.193 356.125 785.927C355.697 785.661 355.165 785.528 354.532 785.528C353.859 785.528 353.277 785.691 352.786 786.02C352.307 786.347 351.94 786.804 351.684 787.387C351.44 787.971 351.317 788.632 351.317 789.37H346.891C346.891 788.037 347.208 786.819 347.841 785.712C348.474 784.596 349.367 783.71 350.521 783.054C351.675 782.388 353.042 782.055 354.624 782.055C356.186 782.055 357.503 782.311 358.575 782.823C359.657 783.325 360.474 784.053 361.025 785.005C361.586 785.948 361.867 787.074 361.867 788.387C361.867 789.123 361.749 789.845 361.515 790.553C361.28 791.249 360.943 791.946 360.504 792.643C360.076 793.329 359.555 794.026 358.942 794.733C358.329 795.439 357.65 796.172 356.906 796.929L353.031 801.294H362.586ZM379.394 796.391V799.866H363.331L363.116 797.176L372.411 782.377H375.918L372.12 788.755L367.496 796.391H379.394ZM376.868 782.377V804.751H372.457V782.377H376.868ZM385.935 796.607V796.284C385.935 795.065 386.108 793.943 386.456 792.918C386.803 791.885 387.307 790.988 387.972 790.229C388.636 789.472 389.452 788.882 390.421 788.462C391.392 788.033 392.504 787.817 393.76 787.817C395.016 787.817 396.134 788.033 397.114 788.462C398.094 788.882 398.915 789.472 399.579 790.229C400.253 790.988 400.762 791.885 401.11 792.918C401.457 793.943 401.631 795.065 401.631 796.284V796.607C401.631 797.815 401.457 798.937 401.11 799.973C400.762 800.997 400.253 801.894 399.579 802.662C398.915 803.42 398.098 804.009 397.128 804.429C396.159 804.849 395.045 805.058 393.791 805.058C392.535 805.058 391.417 804.849 390.437 804.429C389.467 804.009 388.645 803.42 387.972 802.662C387.307 801.894 386.803 800.997 386.456 799.973C386.108 798.937 385.935 797.815 385.935 796.607ZM390.345 796.284V796.607C390.345 797.304 390.406 797.954 390.528 798.558C390.652 799.164 390.845 799.696 391.111 800.157C391.386 800.608 391.743 800.961 392.182 801.217C392.621 801.474 393.158 801.601 393.791 801.601C394.403 801.601 394.928 801.474 395.367 801.217C395.806 800.961 396.159 800.608 396.424 800.157C396.69 799.696 396.883 799.164 397.005 798.558C397.139 797.954 397.205 797.304 397.205 796.607V796.284C397.205 795.608 397.139 794.973 397.005 794.379C396.883 793.774 396.684 793.243 396.408 792.782C396.143 792.309 395.792 791.941 395.353 791.674C394.914 791.408 394.382 791.276 393.76 791.276C393.137 791.276 392.606 791.408 392.167 791.674C391.739 791.941 391.386 792.309 391.111 792.782C390.845 793.243 390.652 793.774 390.528 794.379C390.406 794.973 390.345 795.608 390.345 796.284ZM409.617 801.601C410.158 801.601 410.638 801.499 411.056 801.294C411.475 801.079 411.803 800.781 412.036 800.402C412.282 800.014 412.409 799.557 412.419 799.035H416.569C416.558 800.202 416.248 801.242 415.635 802.155C415.023 803.057 414.202 803.768 413.17 804.29C412.138 804.803 410.986 805.058 409.709 805.058C408.424 805.058 407.299 804.844 406.34 804.413C405.391 803.984 404.599 803.389 403.967 802.63C403.334 801.862 402.859 800.972 402.544 799.957C402.227 798.932 402.069 797.836 402.069 796.668V796.223C402.069 795.044 402.227 793.949 402.544 792.934C402.859 791.91 403.334 791.019 403.967 790.261C404.599 789.493 405.391 788.893 406.34 788.462C407.29 788.033 408.403 787.817 409.678 787.817C411.036 787.817 412.226 788.078 413.247 788.601C414.277 789.123 415.084 789.872 415.666 790.844C416.257 791.807 416.558 792.95 416.569 794.272H412.419C412.409 793.718 412.292 793.216 412.068 792.766C411.853 792.314 411.536 791.955 411.117 791.689C410.71 791.413 410.205 791.276 409.603 791.276C408.958 791.276 408.433 791.413 408.025 791.689C407.616 791.955 407.299 792.325 407.075 792.796C406.851 793.257 406.693 793.785 406.6 794.379C406.518 794.962 406.478 795.578 406.478 796.223V796.668C406.478 797.313 406.518 797.933 406.6 798.528C406.683 799.123 406.835 799.65 407.059 800.111C407.295 800.572 407.616 800.936 408.025 801.202C408.433 801.467 408.965 801.601 409.617 801.601ZM425.675 788.125V791.26H416.027V788.125H425.675ZM418.416 784.022H422.826V799.741C422.826 800.223 422.887 800.593 423.009 800.849C423.142 801.104 423.337 801.283 423.591 801.386C423.846 801.479 424.168 801.524 424.557 801.524C424.831 801.524 425.077 801.515 425.29 801.494C425.516 801.463 425.704 801.433 425.858 801.401L425.874 804.659C425.496 804.783 425.087 804.879 424.648 804.951C424.209 805.024 423.724 805.058 423.194 805.058C422.224 805.058 421.377 804.899 420.651 804.583C419.937 804.254 419.385 803.732 418.998 803.014C418.609 802.298 418.416 801.356 418.416 800.188V784.022ZM426.832 802.616C426.832 801.96 427.056 801.412 427.506 800.972C427.966 800.531 428.572 800.311 429.328 800.311C430.082 800.311 430.686 800.531 431.134 800.972C431.594 801.412 431.823 801.96 431.823 802.616C431.823 803.271 431.594 803.82 431.134 804.259C430.686 804.7 430.082 804.92 429.328 804.92C428.572 804.92 427.966 804.7 427.506 804.259C427.056 803.82 426.832 803.271 426.832 802.616ZM454.703 803.168V804.751H440.754V803.323L448.058 795.01C448.966 793.974 449.692 793.068 450.233 792.289C450.774 791.501 451.161 790.783 451.396 790.138C451.641 789.482 451.763 788.848 451.763 788.232C451.763 787.331 451.584 786.536 451.227 785.85C450.88 785.164 450.36 784.626 449.665 784.237C448.972 783.847 448.114 783.653 447.093 783.653C446.073 783.653 445.184 783.874 444.429 784.314C443.674 784.755 443.092 785.369 442.683 786.159C442.284 786.936 442.085 787.823 442.085 788.816H440.263C440.263 787.587 440.535 786.461 441.075 785.436C441.626 784.412 442.413 783.597 443.434 782.993C444.455 782.377 445.674 782.07 447.093 782.07C448.44 782.07 449.599 782.311 450.57 782.793C451.539 783.263 452.284 783.945 452.804 784.837C453.336 785.727 453.601 786.804 453.601 788.064C453.601 788.739 453.478 789.42 453.234 790.106C452.999 790.794 452.672 791.48 452.254 792.166C451.844 792.843 451.376 793.513 450.844 794.179C450.324 794.844 449.778 795.501 449.206 796.146L442.99 803.168H454.703ZM470.01 791.644V795.408C470.01 797.047 469.856 798.476 469.55 799.696C469.245 800.904 468.795 801.908 468.203 802.707C467.622 803.496 466.907 804.086 466.058 804.474C465.223 804.865 464.263 805.058 463.18 805.058C462.323 805.058 461.536 804.936 460.823 804.69C460.108 804.445 459.47 804.07 458.908 803.568C458.356 803.057 457.888 802.416 457.499 801.647C457.111 800.879 456.815 799.977 456.611 798.944C456.407 797.899 456.305 796.72 456.305 795.408V791.644C456.305 789.995 456.458 788.571 456.765 787.372C457.082 786.173 457.53 785.18 458.112 784.391C458.704 783.601 459.424 783.018 460.271 782.639C461.118 782.25 462.077 782.055 463.15 782.055C464.007 782.055 464.793 782.184 465.508 782.439C466.232 782.686 466.871 783.054 467.422 783.545C467.984 784.037 468.453 784.667 468.831 785.436C469.218 786.193 469.51 787.09 469.704 788.125C469.908 789.159 470.01 790.333 470.01 791.644ZM468.188 795.623V791.413C468.188 790.399 468.116 789.477 467.973 788.648C467.84 787.817 467.642 787.09 467.375 786.465C467.11 785.841 466.773 785.318 466.366 784.898C465.967 784.478 465.497 784.165 464.956 783.96C464.426 783.745 463.824 783.638 463.15 783.638C462.323 783.638 461.593 783.806 460.959 784.144C460.337 784.473 459.816 784.964 459.397 785.62C458.979 786.265 458.664 787.074 458.449 788.048C458.245 789.021 458.143 790.143 458.143 791.413V795.623C458.143 796.627 458.209 797.545 458.342 798.374C458.474 799.194 458.678 799.921 458.954 800.556C459.23 801.192 459.567 801.729 459.965 802.169C460.373 802.6 460.843 802.928 461.373 803.153C461.914 803.368 462.516 803.475 463.18 803.475C464.028 803.475 464.763 803.307 465.386 802.969C466.008 802.621 466.529 802.114 466.947 801.447C467.366 800.772 467.676 799.947 467.882 798.973C468.086 797.99 468.188 796.873 468.188 795.623ZM486.358 803.168V804.751H472.407V803.323L479.711 795.01C480.62 793.974 481.345 793.068 481.886 792.289C482.427 791.501 482.815 790.783 483.049 790.138C483.295 789.482 483.418 788.848 483.418 788.232C483.418 787.331 483.239 786.536 482.881 785.85C482.535 785.164 482.014 784.626 481.32 784.237C480.625 783.847 479.767 783.653 478.747 783.653C477.726 783.653 476.838 783.874 476.083 784.314C475.327 784.755 474.745 785.369 474.337 786.159C473.939 786.936 473.74 787.823 473.74 788.816H471.918C471.918 787.587 472.188 786.461 472.729 785.436C473.281 784.412 474.066 783.597 475.087 782.993C476.108 782.377 477.328 782.07 478.747 782.07C480.095 782.07 481.254 782.311 482.223 782.793C483.193 783.263 483.938 783.945 484.459 784.837C484.989 785.727 485.255 786.804 485.255 788.064C485.255 788.739 485.131 789.42 484.887 790.106C484.652 790.794 484.325 791.48 483.907 792.166C483.499 792.843 483.029 793.513 482.499 794.179C481.978 794.844 481.431 795.501 480.86 796.146L474.643 803.168H486.358ZM502.183 803.168V804.751H488.234V803.323L495.538 795.01C496.448 793.974 497.172 793.068 497.713 792.289C498.254 791.501 498.641 790.783 498.876 790.138C499.121 789.482 499.243 788.848 499.243 788.232C499.243 787.331 499.066 786.536 498.709 785.85C498.361 785.164 497.84 784.626 497.147 784.237C496.452 783.847 495.595 783.653 494.574 783.653C493.553 783.653 492.666 783.874 491.91 784.314C491.154 784.755 490.572 785.369 490.163 786.159C489.766 786.936 489.567 787.823 489.567 788.816H487.744C487.744 787.587 488.015 786.461 488.556 785.436C489.108 784.412 489.893 783.597 490.914 782.993C491.935 782.377 493.155 782.07 494.574 782.07C495.921 782.07 497.08 782.311 498.05 782.793C499.019 783.263 499.766 783.945 500.286 784.837C500.816 785.727 501.081 786.804 501.081 788.064C501.081 788.739 500.959 789.42 500.714 790.106C500.479 790.794 500.153 791.48 499.734 792.166C499.327 792.843 498.856 793.513 498.326 794.179C497.806 794.844 497.258 795.501 496.688 796.146L490.47 803.168H502.183Z" fill="white"/>
<path d="M396.311 639.53C482.476 639.53 552.326 569.432 552.326 482.963C552.326 396.493 482.476 326.396 396.311 326.396C310.146 326.396 240.295 396.493 240.295 482.963C240.295 569.432 310.146 639.53 396.311 639.53Z" stroke="white" stroke-width="5"/>
<path d="M396.311 490.831C398.476 490.831 400.231 489.069 400.231 486.897C400.231 484.724 398.476 482.963 396.311 482.963C394.146 482.963 392.391 484.724 392.391 486.897C392.391 489.069 394.146 490.831 396.311 490.831Z" fill="white" stroke="white" stroke-width="5"/>
<rect x="470.307" y="398" width="6" height="99" rx="3" transform="rotate(39.0034 470.307 398)" fill="white"/>
<path d="M338.157 447.071C336.746 445.971 336.617 443.883 337.882 442.618V442.618C338.945 441.555 340.633 441.451 341.818 442.375L383.589 474.932C385 476.032 385.129 478.12 383.864 479.386V479.386C382.801 480.448 381.114 480.552 379.929 479.629L338.157 447.071Z" fill="white"/>
<path d="M354.243 230.852V253.226H352.374V230.852H354.243ZM361.884 230.852V232.48H344.749V230.852H361.884ZM366.494 236.6V253.226H364.67V236.6H366.494ZM364.349 231.79C364.349 231.442 364.457 231.149 364.67 230.913C364.896 230.668 365.202 230.545 365.589 230.545C365.978 230.545 366.284 230.668 366.508 230.913C366.743 231.149 366.861 231.442 366.861 231.79C366.861 232.128 366.743 232.419 366.508 232.666C366.284 232.901 365.978 233.019 365.589 233.019C365.202 233.019 364.896 232.901 364.67 232.666C364.457 232.419 364.349 232.128 364.349 231.79ZM373.186 230.852V253.226H371.301V230.852H373.186ZM386.967 230.852L377.351 241.102L372.512 245.881L372.328 243.775L376.217 239.719L384.609 230.852H386.967ZM385.406 253.226L376.018 241.731L377.152 240.211L387.687 253.226H385.406ZM390.168 242.208C390.168 241.849 390.28 241.547 390.505 241.302C390.74 241.045 391.055 240.918 391.453 240.918C391.852 240.918 392.168 241.04 392.403 241.286C392.639 241.531 392.755 241.84 392.755 242.208C392.755 242.556 392.639 242.853 392.403 243.099C392.168 243.335 391.852 243.453 391.453 243.453C391.055 243.453 390.74 243.335 390.505 243.099C390.28 242.853 390.168 242.556 390.168 242.208ZM405.053 230.852V253.226H403.183V230.852H405.053ZM412.693 230.852V232.48H395.558V230.852H412.693ZM423.596 250.244V241.67C423.596 240.882 423.433 240.2 423.106 239.626C422.779 239.053 422.299 238.612 421.667 238.306C421.034 237.997 420.253 237.845 419.324 237.845C418.467 237.845 417.7 237.997 417.027 238.306C416.364 238.601 415.837 239.007 415.45 239.519C415.072 240.021 414.884 240.579 414.884 241.195L413.046 241.179C413.046 240.554 413.198 239.948 413.506 239.365C413.811 238.781 414.246 238.258 414.807 237.797C415.368 237.336 416.036 236.973 416.812 236.707C417.598 236.43 418.46 236.292 419.4 236.292C420.585 236.292 421.626 236.491 422.525 236.891C423.433 237.291 424.141 237.89 424.652 238.69C425.164 239.489 425.418 240.493 425.418 241.701V249.737C425.418 250.312 425.458 250.905 425.54 251.52C425.632 252.135 425.759 252.642 425.924 253.042V253.226H423.978C423.856 252.858 423.759 252.397 423.688 251.843C423.627 251.279 423.596 250.746 423.596 250.244ZM424.025 243.546L424.055 244.959H420.456C419.517 244.959 418.675 245.045 417.93 245.22C417.195 245.383 416.573 245.63 416.061 245.958C415.552 246.276 415.158 246.66 414.884 247.11C414.617 247.561 414.486 248.073 414.486 248.647C414.486 249.24 414.633 249.783 414.929 250.276C415.235 250.768 415.665 251.161 416.215 251.459C416.776 251.745 417.44 251.888 418.206 251.888C419.227 251.888 420.126 251.7 420.9 251.32C421.687 250.941 422.335 250.444 422.846 249.83C423.356 249.215 423.698 248.545 423.872 247.816L424.668 248.877C424.535 249.39 424.29 249.917 423.933 250.46C423.586 250.993 423.131 251.495 422.57 251.966C422.009 252.427 421.346 252.806 420.579 253.103C419.825 253.39 418.967 253.533 418.007 253.533C416.925 253.533 415.98 253.328 415.174 252.919C414.377 252.508 413.755 251.95 413.306 251.243C412.867 250.527 412.648 249.717 412.648 248.815C412.648 247.995 412.82 247.264 413.168 246.619C413.515 245.962 414.015 245.41 414.669 244.959C415.332 244.498 416.129 244.15 417.057 243.914C417.996 243.668 419.048 243.546 420.212 243.546H424.025ZM432.019 230.852V253.226H430.134V230.852H432.019ZM445.8 230.852L436.183 241.102L431.345 245.881L431.161 243.775L435.05 239.719L443.442 230.852H445.8ZM444.238 253.226L434.851 241.731L435.984 240.211L446.52 253.226H444.238Z" fill="black"/>
</svg>
