<svg width="127" height="135" viewBox="0 0 127 135" fill="none" xmlns="http://www.w3.org/2000/svg">
<path fill-rule="evenodd" clip-rule="evenodd" d="M65.5 0.0374219C74.006 0.356131 82.06 2.70024 89.2995 6.65829C95.9964 9.9242 102.169 14.3361 107.523 19.7703C119.994 32.429 127 49.5979 127 67.5C127 85.4021 119.994 102.571 107.523 115.23C102.169 120.664 95.9965 125.076 89.2995 128.342C82.0601 132.3 74.006 134.644 65.5 134.963V135C65.1624 135 64.8252 134.997 64.4883 134.991C64.1595 134.997 63.8301 135 63.5 135C63.0241 135 62.5495 134.994 62.0763 134.981C61.5516 134.994 61.0261 135 60.5 135V134.916C49.4808 134.295 39.2506 130.273 30.6081 123.757L30.5472 123.807C29.2611 124.851 27.3717 124.655 26.3271 123.369L22.7784 119H12C9.23858 119 7 116.761 7 114V103.691C2.79366 101.034 0 96.3431 0 91V44C0 38.6569 2.79366 33.9663 7 31.3091V23C7 20.2386 9.23858 18 12 18H21.8672L26.3272 12.5086C27.2296 11.3975 28.7625 11.1002 29.9923 11.7134C38.763 4.9204 49.2179 0.719895 60.5 0.0843165V0C61.0262 -2.29995e-08 61.5517 0.0063295 62.0765 0.018947C62.5496 0.00634368 63.0242 6.7215e-06 63.5 6.7215e-06C63.83 6.7215e-06 64.1594 0.00305437 64.4881 0.00912621C64.8251 0.00304682 65.1624 2.038e-07 65.5 2.18557e-07V0.0374219ZM116 67.5C116 92.3132 103.255 112.912 85.5205 122.391C78.5265 125.687 70.9193 127.593 63.1113 127.942C53.5666 127.476 44.2975 124.228 36.2448 118.537C36.5344 117.609 36.3688 116.559 35.7104 115.748L29 107.486V101.198C31.4823 98.5219 33 94.9382 33 91V44C33 40.0618 31.4823 36.4781 29 33.8019V28.3918L35.7104 20.1296C36.5328 19.1171 36.5864 17.7307 35.9444 16.677C44.0666 10.8537 53.4477 7.52971 63.1112 7.05824C70.9192 7.40677 78.5264 9.31329 85.5204 12.6092C103.255 22.0877 116 42.6867 116 67.5Z" fill="black"/>
</svg>
