<svg width="83" height="123" viewBox="0 0 83 123" fill="none" xmlns="http://www.w3.org/2000/svg">
<path d="M20.2603 5.5237L18.1574 15.2702C18.1054 15.5114 18.0662 15.755 18.0399 16H15C6.71573 16 0 22.7157 0 31V92C0 100.284 6.71573 107 15 107H18.0699C18.1155 107.32 18.1832 107.637 18.2728 107.948L21.1457 117.935C22.0085 120.934 24.7523 123 27.8729 123H50.8971C54.1942 123 57.0443 120.699 57.7397 117.476L59.8426 107.73C59.8946 107.489 59.9338 107.245 59.9601 107H63C71.2843 107 78 100.284 78 92V72C80.7614 72 83 69.7614 83 67V56C83 53.2386 80.7614 51 78 51V31C78 22.7157 71.2843 16 63 16H59.9301C59.8845 15.68 59.8168 15.3631 59.7272 15.0516L56.8543 5.06478C55.9915 2.06574 53.2477 0 50.1271 0H27.1029C23.8058 0 20.9557 2.30077 20.2603 5.5237Z" fill="black"/>
</svg>
